<svg xmlns="http://www.w3.org/2000/svg" width="32" height="32" viewBox="0 0 32 32" fill="none">
    <path d="M6.60059 8.32303L9.70814 6.7998V23.2226L6.60059 26.0879V8.32303Z" fill="#B4BB91" />
    <path d="M9.83255 23.3605L20.0213 23.2679L18.1688 25.6761L12.5187 26.6436L6.83691 26.3606L9.83255 23.3605Z"
        fill="#778561" />
    <path d="M9.64134 6.06573L6.17505 8.30252V25.9677C6.17505 26.2606 6.52403 26.4129 6.73875 26.2137L10.1742 23.0266"
        stroke="black" stroke-width="1.60238" stroke-linecap="round" />
    <mask id="path-4-inside-1_355_17366" fill="white">
        <path fill-rule="evenodd" clip-rule="evenodd"
            d="M17.1961 5.26343H15.427V5.26344H9.52979V24.1338H15.8951L17.1961 24.1338C22.407 24.1338 26.6312 19.9095 26.6312 14.6986C26.6312 9.4877 22.407 5.26343 17.1961 5.26343Z" />
    </mask>
    <path fill-rule="evenodd" clip-rule="evenodd"
        d="M17.1961 5.26343H15.427V5.26344H9.52979V24.1338H15.8951L17.1961 24.1338C22.407 24.1338 26.6312 19.9095 26.6312 14.6986C26.6312 9.4877 22.407 5.26343 17.1961 5.26343Z"
        fill="#F3F6F1" />
    <path
        d="M15.427 5.26343V3.49433H13.6579V5.26343H15.427ZM15.427 5.26344V7.03253H17.1961V5.26344H15.427ZM9.52979 5.26344V3.49434H7.76069V5.26344H9.52979ZM9.52979 24.1338H7.76069V25.9029H9.52979V24.1338ZM15.8951 24.1338V25.9029H15.8952L15.8951 24.1338ZM17.1961 24.1338V22.3647H17.1961L17.1961 24.1338ZM15.427 7.03252H17.1961V3.49433H15.427V7.03252ZM17.1961 5.26344V5.26343H13.6579V5.26344H17.1961ZM9.52979 7.03253H15.427V3.49434H9.52979V7.03253ZM11.2989 24.1338V5.26344H7.76069V24.1338H11.2989ZM15.8951 22.3647H9.52979V25.9029H15.8951V22.3647ZM17.1961 22.3647L15.8951 22.3647L15.8952 25.9029L17.1961 25.9028L17.1961 22.3647ZM24.8621 14.6986C24.8621 18.9324 21.4299 22.3647 17.1961 22.3647V25.9028C23.384 25.9028 28.4003 20.8865 28.4003 14.6986H24.8621ZM17.1961 7.03252C21.4299 7.03252 24.8621 10.4647 24.8621 14.6986H28.4003C28.4003 8.51065 23.384 3.49433 17.1961 3.49433V7.03252Z"
        fill="black" mask="url(#path-4-inside-1_355_17366)" />
    <path
        d="M22.4611 14.1112C22.4611 14.1112 21.6673 17.4664 18.0993 17.4664C14.5314 17.4664 13.4021 14.4467 13.4021 14.1112"
        stroke="black" stroke-width="1.91724" stroke-linecap="round" stroke-linejoin="round" />
    <path
        d="M5.36841 26.4453C5.36841 26.4453 12.6312 26.5291 13.9582 26.496C16.4569 26.4336 18.0656 26.173 19.6209 24.8195C20.9385 23.673 24.0098 20.0115 24.0098 20.0115"
        stroke="black" stroke-width="1.53667" />
</svg>